<svg viewBox="0 0 800 500" xmlns="http://www.w3.org/2000/svg">
<defs><radialGradient id="sh3" cx="0.5" cy="0.5" r="0.5"><stop offset="0" stop-color="#000" stop-opacity=".18"/><stop offset="1" stop-color="#000" stop-opacity="0"/></radialGradient>
<linearGradient id="cr" x1="0" y1="0" x2="0" y2="1"><stop offset="0" stop-color="#3a3a3a"/><stop offset="1" stop-color="#111"/></linearGradient></defs>
<ellipse cx="400" cy="435" rx="340" ry="30" fill="url(#sh3)"/>
<circle cx="195" cy="375" r="92" fill="#141414"/><circle cx="195" cy="375" r="58" fill="#1f1f1f"/><circle cx="195" cy="375" r="12" fill="#666"/>
<circle cx="620" cy="375" r="92" fill="#141414"/><circle cx="620" cy="375" r="58" fill="#1f1f1f"/><circle cx="620" cy="375" r="12" fill="#666"/>
<!-- low frame -->
<path d="M240 365 L370 320 L500 322 L575 365" stroke="#333" stroke-width="14" fill="none" stroke-linecap="round"/>
<!-- big engine -->
<path d="M360 318 L470 318 L455 385 L375 385Z" fill="url(#cr)"/>
<rect x="372" y="330" width="86" height="10" rx="3" fill="#555"/><rect x="372" y="346" width="86" height="10" rx="3" fill="#555"/><rect x="372" y="362" width="86" height="10" rx="3" fill="#555"/>
<!-- teardrop tank -->
<path d="M320 288 Q400 262 475 285 Q478 318 435 322 L355 320 Q320 312 320 288Z" fill="url(#cr)"/>
<!-- wide seat -->
<path d="M455 290 Q580 280 600 305 Q592 320 520 318 L460 315Z" fill="#0d0d0d"/>
<!-- ape handlebar -->
<path d="M325 285 Q295 210 255 205" stroke="#222" stroke-width="13" fill="none" stroke-linecap="round"/>
<!-- round headlight -->
<circle cx="278" cy="270" r="30" fill="#ffd34d"/><circle cx="278" cy="270" r="30" fill="none" stroke="#222" stroke-width="7"/>
<!-- fork -->
<path d="M278 290 L200 360" stroke="#333" stroke-width="13" stroke-linecap="round"/>
<!-- dual exhaust -->
<path d="M470 380 Q570 388 625 368" stroke="#999" stroke-width="16" fill="none" stroke-linecap="round"/>
<path d="M470 398 Q565 405 615 388" stroke="#777" stroke-width="12" fill="none" stroke-linecap="round"/>
</svg>